# xmcd CD database file
#
# Track frame offsets:
#	180
#	17682
#	34924
#	51711
#	69948
#	77917
#	96193
#	119201
#	138442
#	153435
#	167985
#	181728
#
# Disc length: 2526 seconds
#
# Revision: 0
# Processed by: cddbd v1.5.2PL0 Copyright (c) Steve Scherf et al.
# Submitted via: CDex 1.70beta2
#
DISCID=a809dc0c
DTITLE=Bílé skály - Trampské písničky
DYEAR=1900
DGENRE=Country
TTITLE0=Zebra Dan
TTITLE1=Mariána
TTITLE2=Venezuelána
TTITLE3=Jižní Kříž
TTITLE4=Alabama
TTITLE5=Mc Laren
TTITLE6=Utah Carol
TTITLE7=Modrá čepice
TTITLE8=Do pokeru
TTITLE9=Drsňák
TTITLE10=Sosna
TTITLE11=Stáda spí
EXTD=
EXTT0=
EXTT1=
EXTT2=
EXTT3=
EXTT4=
EXTT5=
EXTT6=
EXTT7=
EXTT8=
EXTT9=
EXTT10=
EXTT11=
PLAYORDER=
